<svg width="20" fill="#FE731F" viewBox="0 0 24 24" xmlns="http://www.w3.org/2000/svg" xmlns:xlink="http://www.w3.org/1999/xlink"><clipPath id="clip0_1_30"><path d="m0 0h24v24h-24z"/></clipPath><g clip-path="url(#clip0_1_30)" ><path clip-rule="evenodd" d="m1 2h1.02781c1.66153 0 3.05561 1.31747 3.05561 3v.1847c.33042-.11965.68641-.1847 1.05561-.1847h14.80427c1.9702 0 3.4787 1.83256 2.9527 3.77208l-2.1698 8.00002c-.3606 1.3294-1.5845 2.2279-2.9527 2.2279h-2.2735-9-1.36097c-1.66154 0-3.05561-1.3175-3.05561-3v-11c0-.52661-.44659-1-1.05561-1h-1.02781c-.552285 0-1-.44772-1-1s.447715-1 1-1zm4.08342 14c0 .5266.44658 1 1.05561 1h12.63447c.4983 0 .9067-.325 1.0224-.7515l2.1698-7.99996c.1621-.59746-.2959-1.24854-1.0224-1.24854h-14.80427c-.60882 0-1.05531.47307-1.05561.99946z" fill-rule="evenodd"/><path d="m7.5 19c.82843 0 1.5.6716 1.5 1.5s-.67157 1.5-1.5 1.5-1.5-.6716-1.5-1.5.67157-1.5 1.5-1.5z"/><path d="m16.5 19c.8284 0 1.5.6716 1.5 1.5s-.6716 1.5-1.5 1.5-1.5-.6716-1.5-1.5.6716-1.5 1.5-1.5z"/></g></svg>