<svg version="1.1" width="40" id="Capa_1" xmlns="http://www.w3.org/2000/svg" xmlns:xlink="http://www.w3.org/1999/xlink" x="0px" y="0px" viewBox="0 0 512.001 512.001" style="enable-background:new 0 0 512.001 512.001;" xml:space="preserve"><path style="fill:#FE8821;" d="M407.578,102.892c67.67,66.399,109.46,161.221,103.732,273.015 c-0.423,6.364-4.879,12.09-11.455,13.575l-54.729,13.577c-0.214-1.485-10.82-21.849-24.183-47.517 c3.394-75.094-26.304-142.977-74.883-191.131c-47.73-47.305-113.702-75.942-184.554-74.246L136.049,61.74l15.91-51.125 c1.91-6.576,8.273-10.819,14.851-10.607C257.812,2.766,343.939,40.102,407.578,102.892z"/><path style="fill:#E5741A;" d="M407.578,102.892c67.67,66.399,109.46,161.221,103.732,273.015 c-0.423,6.364-4.879,12.09-11.455,13.575l-54.729,13.577c-0.214-1.485-10.82-21.849-24.183-47.517 c3.394-75.094-26.304-142.977-74.883-191.131L407.578,102.892z"/><path style="fill:#FEDB41;" d="M367.485,142.985c51.76,51.76,84.005,123.036,84.003,201.95c-0.212,15.91-1.696,32.244-4.666,48.791 l-1.484,9.545l-9.547,1.908l-51.123,12.941l-55.154-39.456l-32.457,61.306L18.8,511.135c-4.242,2.121-10.394,0.212-14.425-4.243 c-3.181-3.606-5.302-9.122-3.606-14.637l75.882-240.869l62.792-26.305l-31.184-74.457l27.789-88.883l9.759-0.848 c7.001-0.638,13.577-0.849,20.576-1.062C244.661,60.042,315.937,91.862,367.485,142.985z"/><path style="fill:#FCBF29;" d="M367.485,142.985c51.76,51.76,84.005,123.036,84.003,201.95c-0.212,15.91-1.696,32.244-4.666,48.791 l-1.484,9.545l-9.547,1.908l-51.123,12.941l-55.154-39.456l-32.457,61.306L18.8,511.135c-4.242,2.121-10.394,0.212-14.425-4.243 L367.485,142.985z"/><g><path style="fill:#FF4040;" d="M271.39,149.986c-33.094,0-60.034,26.94-60.034,60.034c0,24.183,14.212,44.758,34.789,54.306 c7.638,3.818,16.335,5.728,25.244,5.727c33.094,0,60.034-26.94,60.034-60.034c0-8.908-1.908-17.606-5.728-25.242 C316.148,164.199,295.573,149.986,271.39,149.986z"/><path style="fill:#FF4040;" d="M121.307,269.959c-20.454,0-30.14-7.562-44.616-18.513l31.549-100.94 c49.27-2.297,73.066,26.265,73.066,59.453C181.307,243.05,154.398,269.959,121.307,269.959z"/><path style="fill:#FF4040;" d="M205.416,305.055c-7.424-3.182-15.698-5.091-24.183-5.091c-33.091,0-60.032,26.941-60.032,60.032 c0,8.486,1.908,16.759,5.091,24.183c9.334,21.214,30.335,35.85,54.943,35.85c33.091,0,60.032-26.941,60.032-60.032 C241.266,335.389,226.63,314.388,205.416,305.055z"/></g><g><path style="fill:#EA0632;" d="M391.307,389.959c0,12.217-2.624,18.658-6.599,28.2l-87.601,21.899l-5.7-5.099 c-12.599-11.4-20.099-27.9-20.099-45c0-33.001,27.001-60,60-60S391.307,356.958,391.307,389.959z"/><path style="fill:#EA0632;" d="M205.416,305.055c21.215,9.334,35.85,30.335,35.85,54.943c0,33.091-26.941,60.032-60.032,60.032 c-24.608,0-45.609-14.636-54.943-35.85L205.416,305.055z"/><path style="fill:#EA0632;" d="M271.388,270.052c-8.909,0.001-17.606-1.908-25.244-5.727l79.55-79.549 c3.82,7.636,5.728,16.335,5.728,25.242C331.422,243.112,304.482,270.052,271.388,270.052z"/></g></svg>